<svg width="1024" height="753" viewBox="0 0 1024 753" fill="none" xmlns="http://www.w3.org/2000/svg">
<g clip-path="url(#clip0_122_130)">
<rect width="1024" height="753" fill="#121214"/>
<g opacity="0.2" filter="url(#filter0_f_122_130)">
<ellipse cx="662.5" cy="122" rx="670.5" ry="350" fill="#B3A659"/>
</g>
<path d="M183.035 358C184.53 358 185.662 358.63 186.431 359.891C187.213 361.138 187.605 362.953 187.605 365.336C187.605 367.719 187.213 369.541 186.431 370.802C185.662 372.063 184.53 372.693 183.035 372.693C181.554 372.693 180.422 372.063 179.639 370.802C178.856 369.541 178.465 367.719 178.465 365.336C178.465 362.967 178.856 361.152 179.639 359.891C180.422 358.63 181.554 358 183.035 358ZM179.953 365.336C179.953 367.026 180.107 368.35 180.415 369.306L185.068 360.099C184.579 359.448 183.901 359.122 183.035 359.122C182.071 359.122 181.316 359.635 180.771 360.66C180.226 361.672 179.953 363.23 179.953 365.336ZM183.035 371.55C184.013 371.55 184.775 371.044 185.32 370.033C185.865 369.008 186.137 367.442 186.137 365.336C186.137 363.549 185.963 362.163 185.613 361.18L180.96 370.469C181.463 371.19 182.154 371.55 183.035 371.55Z" fill="url(#paint0_linear_122_130)" fill-opacity="0.6"/>
<path d="M184.293 395.135H187.374V396.236H179.387V395.135H182.951V383.455L179.555 385.471L178.968 384.536L183.161 381.959H184.293V395.135Z" fill="url(#paint1_linear_122_130)" fill-opacity="0.6"/>
<path d="M183.035 405.502C184.53 405.502 185.662 406.133 186.431 407.393C187.213 408.64 187.605 410.455 187.605 412.838C187.605 415.221 187.213 417.043 186.431 418.304C185.662 419.565 184.53 420.195 183.035 420.195C181.554 420.195 180.422 419.565 179.639 418.304C178.856 417.043 178.465 415.221 178.465 412.838C178.465 410.469 178.856 408.654 179.639 407.393C180.422 406.133 181.554 405.502 183.035 405.502ZM179.953 412.838C179.953 414.529 180.107 415.852 180.415 416.808L185.068 407.601C184.579 406.95 183.901 406.624 183.035 406.624C182.071 406.624 181.316 407.137 180.771 408.162C180.226 409.174 179.953 410.732 179.953 412.838ZM183.035 419.052C184.013 419.052 184.775 418.546 185.32 417.535C185.865 416.51 186.137 414.944 186.137 412.838C186.137 411.051 185.963 409.665 185.613 408.682L180.96 417.971C181.463 418.692 182.154 419.052 183.035 419.052Z" fill="url(#paint2_linear_122_130)" fill-opacity="0.6"/>
<path d="M184.293 442.637H187.374V443.738H179.387V442.637H182.951V430.957L179.555 432.973L178.968 432.038L183.161 429.461H184.293V442.637Z" fill="url(#paint3_linear_122_130)" fill-opacity="0.6"/>
<path d="M184.293 466.388H187.374V467.489H179.387V466.388H182.951V454.708L179.555 456.724L178.968 455.789L183.161 453.212H184.293V466.388Z" fill="url(#paint4_linear_122_130)" fill-opacity="0.6"/>
<path d="M183.035 476.755C184.53 476.755 185.662 477.386 186.431 478.646C187.213 479.893 187.605 481.708 187.605 484.091C187.605 486.474 187.213 488.296 186.431 489.557C185.662 490.818 184.53 491.448 183.035 491.448C181.554 491.448 180.422 490.818 179.639 489.557C178.856 488.296 178.465 486.474 178.465 484.091C178.465 481.722 178.856 479.907 179.639 478.646C180.422 477.386 181.554 476.755 183.035 476.755ZM179.953 484.091C179.953 485.782 180.107 487.105 180.415 488.061L185.068 478.854C184.579 478.203 183.901 477.878 183.035 477.878C182.071 477.878 181.316 478.39 180.771 479.415C180.226 480.427 179.953 481.985 179.953 484.091ZM183.035 490.305C184.013 490.305 184.775 489.8 185.32 488.788C185.865 487.763 186.137 486.197 186.137 484.091C186.137 482.304 185.963 480.919 185.613 479.935L180.96 489.225C181.463 489.945 182.154 490.305 183.035 490.305Z" fill="url(#paint5_linear_122_130)" fill-opacity="0.6"/>
<path d="M184.293 513.89H187.374V514.992H179.387V513.89H182.951V502.21L179.555 504.226L178.968 503.291L183.161 500.714H184.293V513.89Z" fill="url(#paint6_linear_122_130)" fill-opacity="0.6"/>
<path d="M183.035 524.257C184.53 524.257 185.662 524.888 186.431 526.149C187.213 527.396 187.605 529.211 187.605 531.594C187.605 533.977 187.213 535.798 186.431 537.059C185.662 538.32 184.53 538.95 183.035 538.95C181.554 538.95 180.422 538.32 179.639 537.059C178.856 535.798 178.465 533.977 178.465 531.594C178.465 529.224 178.856 527.409 179.639 526.149C180.422 524.888 181.554 524.257 183.035 524.257ZM179.953 531.594C179.953 533.284 180.107 534.607 180.415 535.563L185.068 526.356C184.579 525.705 183.901 525.38 183.035 525.38C182.071 525.38 181.316 525.892 180.771 526.918C180.226 527.929 179.953 529.488 179.953 531.594ZM183.035 537.807C184.013 537.807 184.775 537.302 185.32 536.29C185.865 535.265 186.137 533.699 186.137 531.594C186.137 529.806 185.963 528.421 185.613 527.437L180.96 536.727C181.463 537.447 182.154 537.807 183.035 537.807Z" fill="url(#paint7_linear_122_130)" fill-opacity="0.6"/>
<path d="M183.035 548.008C184.53 548.008 185.662 548.639 186.431 549.9C187.213 551.147 187.605 552.962 187.605 555.345C187.605 557.728 187.213 559.549 186.431 560.81C185.662 562.071 184.53 562.701 183.035 562.701C181.554 562.701 180.422 562.071 179.639 560.81C178.856 559.549 178.465 557.728 178.465 555.345C178.465 552.975 178.856 551.16 179.639 549.9C180.422 548.639 181.554 548.008 183.035 548.008ZM179.953 555.345C179.953 557.035 180.107 558.358 180.415 559.314L185.068 550.107C184.579 549.456 183.901 549.131 183.035 549.131C182.071 549.131 181.316 549.643 180.771 550.669C180.226 551.68 179.953 553.239 179.953 555.345ZM183.035 561.558C184.013 561.558 184.775 561.053 185.32 560.041C185.865 559.016 186.137 557.451 186.137 555.345C186.137 553.557 185.963 552.172 185.613 551.188L180.96 560.478C181.463 561.198 182.154 561.558 183.035 561.558Z" fill="url(#paint8_linear_122_130)" fill-opacity="0.6"/>
<path d="M184.293 585.143H187.374V586.245H179.387V585.143H182.951V573.464L179.555 575.48L178.968 574.544L183.161 571.967H184.293V585.143Z" fill="url(#paint9_linear_122_130)" fill-opacity="0.6"/>
<path d="M183.035 595.511C184.53 595.511 185.662 596.141 186.431 597.402C187.213 598.649 187.605 600.464 187.605 602.847C187.605 605.23 187.213 607.052 186.431 608.312C185.662 609.573 184.53 610.204 183.035 610.204C181.554 610.204 180.422 609.573 179.639 608.312C178.856 607.052 178.465 605.23 178.465 602.847C178.465 600.478 178.856 598.663 179.639 597.402C180.422 596.141 181.554 595.511 183.035 595.511ZM179.953 602.847C179.953 604.537 180.107 605.86 180.415 606.816L185.068 597.61C184.579 596.958 183.901 596.633 183.035 596.633C182.071 596.633 181.316 597.145 180.771 598.171C180.226 599.182 179.953 600.741 179.953 602.847ZM183.035 609.061C184.013 609.061 184.775 608.555 185.32 607.543C185.865 606.518 186.137 604.953 186.137 602.847C186.137 601.059 185.963 599.674 185.613 598.69L180.96 607.98C181.463 608.7 182.154 609.061 183.035 609.061Z" fill="url(#paint10_linear_122_130)" fill-opacity="0.6"/>
<path d="M184.293 632.645H187.374V633.747H179.387V632.645H182.951V620.966L179.555 622.982L178.968 622.046L183.161 619.469H184.293V632.645Z" fill="url(#paint11_linear_122_130)" fill-opacity="0.6"/>
<path d="M184.293 656.396H187.374V657.498H179.387V656.396H182.951V644.717L179.555 646.733L178.968 645.798L183.161 643.221H184.293V656.396Z" fill="url(#paint12_linear_122_130)" fill-opacity="0.6"/>
<path d="M221.965 405.502C223.46 405.502 224.592 406.133 225.361 407.393C226.144 408.64 226.535 410.455 226.535 412.838C226.535 415.221 226.144 417.043 225.361 418.304C224.592 419.565 223.46 420.195 221.965 420.195C220.484 420.195 219.352 419.565 218.569 418.304C217.787 417.043 217.395 415.221 217.395 412.838C217.395 410.469 217.787 408.654 218.569 407.393C219.352 406.133 220.484 405.502 221.965 405.502ZM218.884 412.838C218.884 414.529 219.037 415.852 219.345 416.808L223.998 407.601C223.509 406.95 222.832 406.624 221.965 406.624C221.001 406.624 220.246 407.137 219.701 408.162C219.156 409.174 218.884 410.732 218.884 412.838ZM221.965 419.052C222.943 419.052 223.705 418.546 224.25 417.535C224.795 416.51 225.068 414.944 225.068 412.838C225.068 411.051 224.893 409.665 224.543 408.682L219.89 417.971C220.393 418.692 221.085 419.052 221.965 419.052Z" fill="url(#paint13_linear_122_130)" fill-opacity="0.6"/>
<path d="M223.223 442.637H226.304V443.738H218.318V442.637H221.881V430.957L218.485 432.973L217.898 432.038L222.091 429.461H223.223V442.637Z" fill="url(#paint14_linear_122_130)" fill-opacity="0.6"/>
<path d="M221.965 453.004C223.46 453.004 224.592 453.635 225.361 454.895C226.144 456.142 226.535 457.957 226.535 460.34C226.535 462.723 226.144 464.545 225.361 465.806C224.592 467.067 223.46 467.697 221.965 467.697C220.484 467.697 219.352 467.067 218.569 465.806C217.787 464.545 217.395 462.723 217.395 460.34C217.395 457.971 217.787 456.156 218.569 454.895C219.352 453.635 220.484 453.004 221.965 453.004ZM218.884 460.34C218.884 462.031 219.037 463.354 219.345 464.31L223.998 455.103C223.509 454.452 222.832 454.126 221.965 454.126C221.001 454.126 220.246 454.639 219.701 455.664C219.156 456.676 218.884 458.234 218.884 460.34ZM221.965 466.554C222.943 466.554 223.705 466.049 224.25 465.037C224.795 464.012 225.068 462.446 225.068 460.34C225.068 458.553 224.893 457.168 224.543 456.184L219.89 465.474C220.393 466.194 221.085 466.554 221.965 466.554Z" fill="url(#paint15_linear_122_130)" fill-opacity="0.6"/>
<path d="M221.965 476.755C223.46 476.755 224.592 477.386 225.361 478.646C226.144 479.893 226.535 481.708 226.535 484.091C226.535 486.474 226.144 488.296 225.361 489.557C224.592 490.818 223.46 491.448 221.965 491.448C220.484 491.448 219.352 490.818 218.569 489.557C217.787 488.296 217.395 486.474 217.395 484.091C217.395 481.722 217.787 479.907 218.569 478.646C219.352 477.386 220.484 476.755 221.965 476.755ZM218.884 484.091C218.884 485.782 219.037 487.105 219.345 488.061L223.998 478.854C223.509 478.203 222.832 477.878 221.965 477.878C221.001 477.878 220.246 478.39 219.701 479.415C219.156 480.427 218.884 481.985 218.884 484.091ZM221.965 490.305C222.943 490.305 223.705 489.8 224.25 488.788C224.795 487.763 225.068 486.197 225.068 484.091C225.068 482.304 224.893 480.919 224.543 479.935L219.89 489.225C220.393 489.945 221.085 490.305 221.965 490.305Z" fill="url(#paint16_linear_122_130)" fill-opacity="0.6"/>
<path d="M223.223 513.89H226.304V514.992H218.318V513.89H221.881V502.21L218.485 504.226L217.898 503.291L222.091 500.714H223.223V513.89Z" fill="url(#paint17_linear_122_130)" fill-opacity="0.6"/>
<path d="M221.965 524.257C223.46 524.257 224.592 524.888 225.361 526.149C226.144 527.396 226.535 529.211 226.535 531.594C226.535 533.977 226.144 535.798 225.361 537.059C224.592 538.32 223.46 538.95 221.965 538.95C220.484 538.95 219.352 538.32 218.569 537.059C217.787 535.798 217.395 533.977 217.395 531.594C217.395 529.224 217.787 527.409 218.569 526.149C219.352 524.888 220.484 524.257 221.965 524.257ZM218.884 531.594C218.884 533.284 219.037 534.607 219.345 535.563L223.998 526.356C223.509 525.705 222.832 525.38 221.965 525.38C221.001 525.38 220.246 525.892 219.701 526.918C219.156 527.929 218.884 529.488 218.884 531.594ZM221.965 537.807C222.943 537.807 223.705 537.302 224.25 536.29C224.795 535.265 225.068 533.699 225.068 531.594C225.068 529.806 224.893 528.421 224.543 527.437L219.89 536.727C220.393 537.447 221.085 537.807 221.965 537.807Z" fill="url(#paint18_linear_122_130)" fill-opacity="0.6"/>
<path d="M223.223 561.392H226.304V562.494H218.318V561.392H221.881V549.713L218.485 551.728L217.898 550.793L222.091 548.216H223.223V561.392Z" fill="url(#paint19_linear_122_130)" fill-opacity="0.6"/>
<path d="M221.965 571.76C223.46 571.76 224.592 572.39 225.361 573.651C226.144 574.898 226.535 576.713 226.535 579.096C226.535 581.479 226.144 583.301 225.361 584.561C224.592 585.822 223.46 586.453 221.965 586.453C220.484 586.453 219.352 585.822 218.569 584.561C217.787 583.301 217.395 581.479 217.395 579.096C217.395 576.726 217.787 574.911 218.569 573.651C219.352 572.39 220.484 571.76 221.965 571.76ZM218.884 579.096C218.884 580.786 219.037 582.109 219.345 583.065L223.998 573.859C223.509 573.207 222.832 572.882 221.965 572.882C221.001 572.882 220.246 573.394 219.701 574.42C219.156 575.431 218.884 576.99 218.884 579.096ZM221.965 585.31C222.943 585.31 223.705 584.804 224.25 583.792C224.795 582.767 225.068 581.202 225.068 579.096C225.068 577.308 224.893 575.923 224.543 574.939L219.89 584.229C220.393 584.949 221.085 585.31 221.965 585.31Z" fill="url(#paint20_linear_122_130)" fill-opacity="0.6"/>
<path d="M221.965 595.511C223.46 595.511 224.592 596.141 225.361 597.402C226.144 598.649 226.535 600.464 226.535 602.847C226.535 605.23 226.144 607.052 225.361 608.312C224.592 609.573 223.46 610.204 221.965 610.204C220.484 610.204 219.352 609.573 218.569 608.312C217.787 607.052 217.395 605.23 217.395 602.847C217.395 600.478 217.787 598.663 218.569 597.402C219.352 596.141 220.484 595.511 221.965 595.511ZM218.884 602.847C218.884 604.537 219.037 605.86 219.345 606.816L223.998 597.61C223.509 596.958 222.832 596.633 221.965 596.633C221.001 596.633 220.246 597.145 219.701 598.171C219.156 599.182 218.884 600.741 218.884 602.847ZM221.965 609.061C222.943 609.061 223.705 608.555 224.25 607.543C224.795 606.518 225.068 604.953 225.068 602.847C225.068 601.059 224.893 599.674 224.543 598.69L219.89 607.98C220.393 608.7 221.085 609.061 221.965 609.061Z" fill="url(#paint21_linear_122_130)" fill-opacity="0.6"/>
<path d="M223.223 632.645H226.304V633.747H218.318V632.645H221.881V620.966L218.485 622.982L217.898 622.046L222.091 619.469H223.223V632.645Z" fill="url(#paint22_linear_122_130)" fill-opacity="0.6"/>
<path d="M221.965 643.013C223.46 643.013 224.592 643.643 225.361 644.904C226.144 646.151 226.535 647.966 226.535 650.349C226.535 652.732 226.144 654.554 225.361 655.815C224.592 657.075 223.46 657.706 221.965 657.706C220.484 657.706 219.352 657.075 218.569 655.815C217.787 654.554 217.395 652.732 217.395 650.349C217.395 647.98 217.787 646.165 218.569 644.904C219.352 643.643 220.484 643.013 221.965 643.013ZM218.884 650.349C218.884 652.039 219.037 653.362 219.345 654.318L223.998 645.112C223.509 644.461 222.832 644.135 221.965 644.135C221.001 644.135 220.246 644.648 219.701 645.673C219.156 646.684 218.884 648.243 218.884 650.349ZM221.965 656.563C222.943 656.563 223.705 656.057 224.25 655.046C224.795 654.02 225.068 652.455 225.068 650.349C225.068 648.562 224.893 647.176 224.543 646.192L219.89 655.482C220.393 656.202 221.085 656.563 221.965 656.563Z" fill="url(#paint23_linear_122_130)" fill-opacity="0.6"/>
<path d="M223.223 680.148H226.304V681.249H218.318V680.148H221.881V668.468L218.485 670.484L217.898 669.549L222.091 666.972H223.223V680.148Z" fill="url(#paint24_linear_122_130)" fill-opacity="0.6"/>
<path d="M223.223 703.899H226.304V705H218.318V703.899H221.881V692.219L218.485 694.235L217.898 693.3L222.091 690.723H223.223V703.899Z" fill="url(#paint25_linear_122_130)" fill-opacity="0.6"/>
<path d="M163.57 429.253C165.065 429.253 166.197 429.884 166.966 431.144C167.748 432.391 168.14 434.206 168.14 436.589C168.14 438.972 167.748 440.794 166.966 442.055C166.197 443.316 165.065 443.946 163.57 443.946C162.088 443.946 160.956 443.316 160.174 442.055C159.391 440.794 159 438.972 159 436.589C159 434.22 159.391 432.405 160.174 431.144C160.956 429.884 162.088 429.253 163.57 429.253ZM160.488 436.589C160.488 438.28 160.642 439.603 160.95 440.559L165.603 431.352C165.114 430.701 164.436 430.375 163.57 430.375C162.606 430.375 161.851 430.888 161.306 431.913C160.761 432.925 160.488 434.483 160.488 436.589ZM163.57 442.803C164.548 442.803 165.31 442.297 165.855 441.286C166.4 440.261 166.672 438.695 166.672 436.589C166.672 434.802 166.498 433.417 166.148 432.433L161.495 441.722C161.998 442.443 162.689 442.803 163.57 442.803Z" fill="url(#paint26_linear_122_130)" fill-opacity="0.6"/>
<path d="M163.57 453.004C165.065 453.004 166.197 453.635 166.966 454.895C167.748 456.142 168.14 457.957 168.14 460.34C168.14 462.723 167.748 464.545 166.966 465.806C166.197 467.067 165.065 467.697 163.57 467.697C162.088 467.697 160.956 467.067 160.174 465.806C159.391 464.545 159 462.723 159 460.34C159 457.971 159.391 456.156 160.174 454.895C160.956 453.635 162.088 453.004 163.57 453.004ZM160.488 460.34C160.488 462.031 160.642 463.354 160.95 464.31L165.603 455.103C165.114 454.452 164.436 454.126 163.57 454.126C162.606 454.126 161.851 454.639 161.306 455.664C160.761 456.676 160.488 458.234 160.488 460.34ZM163.57 466.554C164.548 466.554 165.31 466.049 165.855 465.037C166.4 464.012 166.672 462.446 166.672 460.34C166.672 458.553 166.498 457.168 166.148 456.184L161.495 465.474C161.998 466.194 162.689 466.554 163.57 466.554Z" fill="url(#paint27_linear_122_130)" fill-opacity="0.6"/>
<path d="M164.828 490.139H167.909V491.24H159.922V490.139H163.486V478.459L160.09 480.475L159.503 479.54L163.696 476.963H164.828V490.139Z" fill="url(#paint28_linear_122_130)" fill-opacity="0.6"/>
<path d="M163.57 500.506C165.065 500.506 166.197 501.137 166.966 502.398C167.748 503.644 168.14 505.459 168.14 507.842C168.14 510.225 167.748 512.047 166.966 513.308C166.197 514.569 165.065 515.199 163.57 515.199C162.088 515.199 160.956 514.569 160.174 513.308C159.391 512.047 159 510.225 159 507.842C159 505.473 159.391 503.658 160.174 502.398C160.956 501.137 162.088 500.506 163.57 500.506ZM160.488 507.842C160.488 509.533 160.642 510.856 160.95 511.812L165.603 502.605C165.114 501.954 164.436 501.629 163.57 501.629C162.606 501.629 161.851 502.141 161.306 503.166C160.761 504.178 160.488 505.737 160.488 507.842ZM163.57 514.056C164.548 514.056 165.31 513.551 165.855 512.539C166.4 511.514 166.672 509.948 166.672 507.842C166.672 506.055 166.498 504.67 166.148 503.686L161.495 512.976C161.998 513.696 162.689 514.056 163.57 514.056Z" fill="url(#paint29_linear_122_130)" fill-opacity="0.6"/>
<path d="M164.828 537.641H167.909V538.743H159.922V537.641H163.486V525.962L160.09 527.977L159.503 527.042L163.696 524.465H164.828V537.641Z" fill="url(#paint30_linear_122_130)" fill-opacity="0.6"/>
<path d="M164.828 561.392H167.909V562.494H159.922V561.392H163.486V549.713L160.09 551.728L159.503 550.793L163.696 548.216H164.828V561.392Z" fill="url(#paint31_linear_122_130)" fill-opacity="0.6"/>
<path d="M203.758 395.135H206.839V396.236H198.853V395.135H202.416V383.455L199.02 385.471L198.433 384.536L202.626 381.959H203.758V395.135Z" fill="url(#paint32_linear_122_130)" fill-opacity="0.6"/>
<path d="M202.5 405.502C203.995 405.502 205.127 406.133 205.896 407.393C206.679 408.64 207.07 410.455 207.07 412.838C207.07 415.221 206.679 417.043 205.896 418.304C205.127 419.565 203.995 420.195 202.5 420.195C201.019 420.195 199.887 419.565 199.104 418.304C198.321 417.043 197.93 415.221 197.93 412.838C197.93 410.469 198.321 408.654 199.104 407.393C199.887 406.133 201.019 405.502 202.5 405.502ZM199.419 412.838C199.419 414.529 199.572 415.852 199.88 416.808L204.533 407.601C204.044 406.95 203.366 406.624 202.5 406.624C201.536 406.624 200.781 407.137 200.236 408.162C199.691 409.174 199.419 410.732 199.419 412.838ZM202.5 419.052C203.478 419.052 204.24 418.546 204.785 417.535C205.33 416.51 205.602 414.944 205.602 412.838C205.602 411.051 205.428 409.665 205.078 408.682L200.425 417.971C200.928 418.692 201.62 419.052 202.5 419.052Z" fill="url(#paint33_linear_122_130)" fill-opacity="0.6"/>
<path d="M203.758 442.637H206.839V443.738H198.853V442.637H202.416V430.957L199.02 432.973L198.433 432.038L202.626 429.461H203.758V442.637Z" fill="url(#paint34_linear_122_130)" fill-opacity="0.6"/>
<path d="M203.758 466.388H206.839V467.489H198.853V466.388H202.416V454.708L199.02 456.724L198.433 455.789L202.626 453.212H203.758V466.388Z" fill="url(#paint35_linear_122_130)" fill-opacity="0.6"/>
<path d="M202.5 476.755C203.995 476.755 205.127 477.386 205.896 478.646C206.679 479.893 207.07 481.708 207.07 484.091C207.07 486.474 206.679 488.296 205.896 489.557C205.127 490.818 203.995 491.448 202.5 491.448C201.019 491.448 199.887 490.818 199.104 489.557C198.321 488.296 197.93 486.474 197.93 484.091C197.93 481.722 198.321 479.907 199.104 478.646C199.887 477.386 201.019 476.755 202.5 476.755ZM199.419 484.091C199.419 485.782 199.572 487.105 199.88 488.061L204.533 478.854C204.044 478.203 203.366 477.878 202.5 477.878C201.536 477.878 200.781 478.39 200.236 479.415C199.691 480.427 199.419 481.985 199.419 484.091ZM202.5 490.305C203.478 490.305 204.24 489.8 204.785 488.788C205.33 487.763 205.602 486.197 205.602 484.091C205.602 482.304 205.428 480.919 205.078 479.935L200.425 489.225C200.928 489.945 201.62 490.305 202.5 490.305Z" fill="url(#paint36_linear_122_130)" fill-opacity="0.6"/>
<path d="M203.758 513.89H206.839V514.992H198.853V513.89H202.416V502.21L199.02 504.226L198.433 503.291L202.626 500.714H203.758V513.89Z" fill="url(#paint37_linear_122_130)" fill-opacity="0.6"/>
<path d="M203.758 537.641H206.839V538.743H198.853V537.641H202.416V525.962L199.02 527.977L198.433 527.042L202.626 524.465H203.758V537.641Z" fill="url(#paint38_linear_122_130)" fill-opacity="0.6"/>
<path d="M202.5 548.008C203.995 548.008 205.127 548.639 205.896 549.9C206.679 551.147 207.07 552.962 207.07 555.345C207.07 557.728 206.679 559.549 205.896 560.81C205.127 562.071 203.995 562.701 202.5 562.701C201.019 562.701 199.887 562.071 199.104 560.81C198.321 559.549 197.93 557.728 197.93 555.345C197.93 552.975 198.321 551.16 199.104 549.9C199.887 548.639 201.019 548.008 202.5 548.008ZM199.419 555.345C199.419 557.035 199.572 558.358 199.88 559.314L204.533 550.107C204.044 549.456 203.366 549.131 202.5 549.131C201.536 549.131 200.781 549.643 200.236 550.669C199.691 551.68 199.419 553.239 199.419 555.345ZM202.5 561.558C203.478 561.558 204.24 561.053 204.785 560.041C205.33 559.016 205.602 557.451 205.602 555.345C205.602 553.557 205.428 552.172 205.078 551.188L200.425 560.478C200.928 561.198 201.62 561.558 202.5 561.558Z" fill="url(#paint39_linear_122_130)" fill-opacity="0.6"/>
<path d="M203.758 585.143H206.839V586.245H198.853V585.143H202.416V573.464L199.02 575.48L198.433 574.544L202.626 571.967H203.758V585.143Z" fill="url(#paint40_linear_122_130)" fill-opacity="0.6"/>
<path d="M202.5 595.511C203.995 595.511 205.127 596.141 205.896 597.402C206.679 598.649 207.07 600.464 207.07 602.847C207.07 605.23 206.679 607.052 205.896 608.312C205.127 609.573 203.995 610.204 202.5 610.204C201.019 610.204 199.887 609.573 199.104 608.312C198.321 607.052 197.93 605.23 197.93 602.847C197.93 600.478 198.321 598.663 199.104 597.402C199.887 596.141 201.019 595.511 202.5 595.511ZM199.419 602.847C199.419 604.537 199.572 605.86 199.88 606.816L204.533 597.61C204.044 596.958 203.366 596.633 202.5 596.633C201.536 596.633 200.781 597.145 200.236 598.171C199.691 599.182 199.419 600.741 199.419 602.847ZM202.5 609.061C203.478 609.061 204.24 608.555 204.785 607.543C205.33 606.518 205.602 604.953 205.602 602.847C205.602 601.059 205.428 599.674 205.078 598.69L200.425 607.98C200.928 608.7 201.62 609.061 202.5 609.061Z" fill="url(#paint41_linear_122_130)" fill-opacity="0.6"/>
<path d="M241.43 381.751C242.926 381.751 244.057 382.381 244.826 383.642C245.609 384.889 246 386.704 246 389.087C246 391.47 245.609 393.292 244.826 394.553C244.057 395.814 242.926 396.444 241.43 396.444C239.949 396.444 238.817 395.814 238.034 394.553C237.252 393.292 236.86 391.47 236.86 389.087C236.86 386.718 237.252 384.903 238.034 383.642C238.817 382.381 239.949 381.751 241.43 381.751ZM238.349 389.087C238.349 390.777 238.502 392.101 238.81 393.057L243.464 383.85C242.974 383.199 242.297 382.873 241.43 382.873C240.466 382.873 239.711 383.386 239.166 384.411C238.621 385.423 238.349 386.981 238.349 389.087ZM241.43 395.301C242.408 395.301 243.17 394.795 243.715 393.784C244.26 392.759 244.533 391.193 244.533 389.087C244.533 387.3 244.358 385.914 244.009 384.931L239.355 394.22C239.858 394.941 240.55 395.301 241.43 395.301Z" fill="url(#paint42_linear_122_130)" fill-opacity="0.6"/>
<path d="M242.688 418.886H245.769V419.987H237.783V418.886H241.346V407.206L237.95 409.222L237.363 408.287L241.556 405.71H242.688V418.886Z" fill="url(#paint43_linear_122_130)" fill-opacity="0.6"/>
<path d="M242.688 442.637H245.769V443.738H237.783V442.637H241.346V430.957L237.95 432.973L237.363 432.038L241.556 429.461H242.688V442.637Z" fill="url(#paint44_linear_122_130)" fill-opacity="0.6"/>
<path d="M241.43 453.004C242.926 453.004 244.057 453.635 244.826 454.895C245.609 456.142 246 457.957 246 460.34C246 462.723 245.609 464.545 244.826 465.806C244.057 467.067 242.926 467.697 241.43 467.697C239.949 467.697 238.817 467.067 238.034 465.806C237.252 464.545 236.86 462.723 236.86 460.34C236.86 457.971 237.252 456.156 238.034 454.895C238.817 453.635 239.949 453.004 241.43 453.004ZM238.349 460.34C238.349 462.031 238.502 463.354 238.81 464.31L243.464 455.103C242.974 454.452 242.297 454.126 241.43 454.126C240.466 454.126 239.711 454.639 239.166 455.664C238.621 456.676 238.349 458.234 238.349 460.34ZM241.43 466.554C242.408 466.554 243.17 466.049 243.715 465.037C244.26 464.012 244.533 462.446 244.533 460.34C244.533 458.553 244.358 457.168 244.009 456.184L239.355 465.474C239.858 466.194 240.55 466.554 241.43 466.554Z" fill="url(#paint45_linear_122_130)" fill-opacity="0.6"/>
<path d="M241.43 476.755C242.926 476.755 244.057 477.386 244.826 478.646C245.609 479.893 246 481.708 246 484.091C246 486.474 245.609 488.296 244.826 489.557C244.057 490.818 242.926 491.448 241.43 491.448C239.949 491.448 238.817 490.818 238.034 489.557C237.252 488.296 236.86 486.474 236.86 484.091C236.86 481.722 237.252 479.907 238.034 478.646C238.817 477.386 239.949 476.755 241.43 476.755ZM238.349 484.091C238.349 485.782 238.502 487.105 238.81 488.061L243.464 478.854C242.974 478.203 242.297 477.878 241.43 477.878C240.466 477.878 239.711 478.39 239.166 479.415C238.621 480.427 238.349 481.985 238.349 484.091ZM241.43 490.305C242.408 490.305 243.17 489.8 243.715 488.788C244.26 487.763 244.533 486.197 244.533 484.091C244.533 482.304 244.358 480.919 244.009 479.935L239.355 489.225C239.858 489.945 240.55 490.305 241.43 490.305Z" fill="url(#paint46_linear_122_130)" fill-opacity="0.6"/>
</g>
<defs>
<filter id="filter0_f_122_130" x="-408.19" y="-628.19" width="2141.38" height="1500.38" filterUnits="userSpaceOnUse" color-interpolation-filters="sRGB">
<feFlood flood-opacity="0" result="BackgroundImageFix"/>
<feBlend mode="normal" in="SourceGraphic" in2="BackgroundImageFix" result="shape"/>
<feGaussianBlur stdDeviation="200.095" result="effect1_foregroundBlur_122_130"/>
</filter>
<linearGradient id="paint0_linear_122_130" x1="202.5" y1="358" x2="202.5" y2="669.381" gradientUnits="userSpaceOnUse">
<stop stop-color="#F7DD43"/>
<stop offset="1" stop-color="#F7DD43" stop-opacity="0"/>
</linearGradient>
<linearGradient id="paint1_linear_122_130" x1="202.5" y1="358" x2="202.5" y2="669.381" gradientUnits="userSpaceOnUse">
<stop stop-color="#F7DD43"/>
<stop offset="1" stop-color="#F7DD43" stop-opacity="0"/>
</linearGradient>
<linearGradient id="paint2_linear_122_130" x1="202.5" y1="358" x2="202.5" y2="669.381" gradientUnits="userSpaceOnUse">
<stop stop-color="#F7DD43"/>
<stop offset="1" stop-color="#F7DD43" stop-opacity="0"/>
</linearGradient>
<linearGradient id="paint3_linear_122_130" x1="202.5" y1="358" x2="202.5" y2="669.381" gradientUnits="userSpaceOnUse">
<stop stop-color="#F7DD43"/>
<stop offset="1" stop-color="#F7DD43" stop-opacity="0"/>
</linearGradient>
<linearGradient id="paint4_linear_122_130" x1="202.5" y1="358" x2="202.5" y2="669.381" gradientUnits="userSpaceOnUse">
<stop stop-color="#F7DD43"/>
<stop offset="1" stop-color="#F7DD43" stop-opacity="0"/>
</linearGradient>
<linearGradient id="paint5_linear_122_130" x1="202.5" y1="358" x2="202.5" y2="669.381" gradientUnits="userSpaceOnUse">
<stop stop-color="#F7DD43"/>
<stop offset="1" stop-color="#F7DD43" stop-opacity="0"/>
</linearGradient>
<linearGradient id="paint6_linear_122_130" x1="202.5" y1="358" x2="202.5" y2="669.381" gradientUnits="userSpaceOnUse">
<stop stop-color="#F7DD43"/>
<stop offset="1" stop-color="#F7DD43" stop-opacity="0"/>
</linearGradient>
<linearGradient id="paint7_linear_122_130" x1="202.5" y1="358" x2="202.5" y2="669.381" gradientUnits="userSpaceOnUse">
<stop stop-color="#F7DD43"/>
<stop offset="1" stop-color="#F7DD43" stop-opacity="0"/>
</linearGradient>
<linearGradient id="paint8_linear_122_130" x1="202.5" y1="358" x2="202.5" y2="669.381" gradientUnits="userSpaceOnUse">
<stop stop-color="#F7DD43"/>
<stop offset="1" stop-color="#F7DD43" stop-opacity="0"/>
</linearGradient>
<linearGradient id="paint9_linear_122_130" x1="202.5" y1="358" x2="202.5" y2="669.381" gradientUnits="userSpaceOnUse">
<stop stop-color="#F7DD43"/>
<stop offset="1" stop-color="#F7DD43" stop-opacity="0"/>
</linearGradient>
<linearGradient id="paint10_linear_122_130" x1="202.5" y1="358" x2="202.5" y2="669.381" gradientUnits="userSpaceOnUse">
<stop stop-color="#F7DD43"/>
<stop offset="1" stop-color="#F7DD43" stop-opacity="0"/>
</linearGradient>
<linearGradient id="paint11_linear_122_130" x1="202.5" y1="358" x2="202.5" y2="669.381" gradientUnits="userSpaceOnUse">
<stop stop-color="#F7DD43"/>
<stop offset="1" stop-color="#F7DD43" stop-opacity="0"/>
</linearGradient>
<linearGradient id="paint12_linear_122_130" x1="202.5" y1="358" x2="202.5" y2="669.381" gradientUnits="userSpaceOnUse">
<stop stop-color="#F7DD43"/>
<stop offset="1" stop-color="#F7DD43" stop-opacity="0"/>
</linearGradient>
<linearGradient id="paint13_linear_122_130" x1="202.5" y1="358" x2="202.5" y2="669.381" gradientUnits="userSpaceOnUse">
<stop stop-color="#F7DD43"/>
<stop offset="1" stop-color="#F7DD43" stop-opacity="0"/>
</linearGradient>
<linearGradient id="paint14_linear_122_130" x1="202.5" y1="358" x2="202.5" y2="669.381" gradientUnits="userSpaceOnUse">
<stop stop-color="#F7DD43"/>
<stop offset="1" stop-color="#F7DD43" stop-opacity="0"/>
</linearGradient>
<linearGradient id="paint15_linear_122_130" x1="202.5" y1="358" x2="202.5" y2="669.381" gradientUnits="userSpaceOnUse">
<stop stop-color="#F7DD43"/>
<stop offset="1" stop-color="#F7DD43" stop-opacity="0"/>
</linearGradient>
<linearGradient id="paint16_linear_122_130" x1="202.5" y1="358" x2="202.5" y2="669.381" gradientUnits="userSpaceOnUse">
<stop stop-color="#F7DD43"/>
<stop offset="1" stop-color="#F7DD43" stop-opacity="0"/>
</linearGradient>
<linearGradient id="paint17_linear_122_130" x1="202.5" y1="358" x2="202.5" y2="669.381" gradientUnits="userSpaceOnUse">
<stop stop-color="#F7DD43"/>
<stop offset="1" stop-color="#F7DD43" stop-opacity="0"/>
</linearGradient>
<linearGradient id="paint18_linear_122_130" x1="202.5" y1="358" x2="202.5" y2="669.381" gradientUnits="userSpaceOnUse">
<stop stop-color="#F7DD43"/>
<stop offset="1" stop-color="#F7DD43" stop-opacity="0"/>
</linearGradient>
<linearGradient id="paint19_linear_122_130" x1="202.5" y1="358" x2="202.5" y2="669.381" gradientUnits="userSpaceOnUse">
<stop stop-color="#F7DD43"/>
<stop offset="1" stop-color="#F7DD43" stop-opacity="0"/>
</linearGradient>
<linearGradient id="paint20_linear_122_130" x1="202.5" y1="358" x2="202.5" y2="669.381" gradientUnits="userSpaceOnUse">
<stop stop-color="#F7DD43"/>
<stop offset="1" stop-color="#F7DD43" stop-opacity="0"/>
</linearGradient>
<linearGradient id="paint21_linear_122_130" x1="202.5" y1="358" x2="202.5" y2="669.381" gradientUnits="userSpaceOnUse">
<stop stop-color="#F7DD43"/>
<stop offset="1" stop-color="#F7DD43" stop-opacity="0"/>
</linearGradient>
<linearGradient id="paint22_linear_122_130" x1="202.5" y1="358" x2="202.5" y2="669.381" gradientUnits="userSpaceOnUse">
<stop stop-color="#F7DD43"/>
<stop offset="1" stop-color="#F7DD43" stop-opacity="0"/>
</linearGradient>
<linearGradient id="paint23_linear_122_130" x1="202.5" y1="358" x2="202.5" y2="669.381" gradientUnits="userSpaceOnUse">
<stop stop-color="#F7DD43"/>
<stop offset="1" stop-color="#F7DD43" stop-opacity="0"/>
</linearGradient>
<linearGradient id="paint24_linear_122_130" x1="202.5" y1="358" x2="202.5" y2="669.381" gradientUnits="userSpaceOnUse">
<stop stop-color="#F7DD43"/>
<stop offset="1" stop-color="#F7DD43" stop-opacity="0"/>
</linearGradient>
<linearGradient id="paint25_linear_122_130" x1="202.5" y1="358" x2="202.5" y2="669.381" gradientUnits="userSpaceOnUse">
<stop stop-color="#F7DD43"/>
<stop offset="1" stop-color="#F7DD43" stop-opacity="0"/>
</linearGradient>
<linearGradient id="paint26_linear_122_130" x1="202.5" y1="358" x2="202.5" y2="669.381" gradientUnits="userSpaceOnUse">
<stop stop-color="#F7DD43"/>
<stop offset="1" stop-color="#F7DD43" stop-opacity="0"/>
</linearGradient>
<linearGradient id="paint27_linear_122_130" x1="202.5" y1="358" x2="202.5" y2="669.381" gradientUnits="userSpaceOnUse">
<stop stop-color="#F7DD43"/>
<stop offset="1" stop-color="#F7DD43" stop-opacity="0"/>
</linearGradient>
<linearGradient id="paint28_linear_122_130" x1="202.5" y1="358" x2="202.5" y2="669.381" gradientUnits="userSpaceOnUse">
<stop stop-color="#F7DD43"/>
<stop offset="1" stop-color="#F7DD43" stop-opacity="0"/>
</linearGradient>
<linearGradient id="paint29_linear_122_130" x1="202.5" y1="358" x2="202.5" y2="669.381" gradientUnits="userSpaceOnUse">
<stop stop-color="#F7DD43"/>
<stop offset="1" stop-color="#F7DD43" stop-opacity="0"/>
</linearGradient>
<linearGradient id="paint30_linear_122_130" x1="202.5" y1="358" x2="202.5" y2="669.381" gradientUnits="userSpaceOnUse">
<stop stop-color="#F7DD43"/>
<stop offset="1" stop-color="#F7DD43" stop-opacity="0"/>
</linearGradient>
<linearGradient id="paint31_linear_122_130" x1="202.5" y1="358" x2="202.5" y2="669.381" gradientUnits="userSpaceOnUse">
<stop stop-color="#F7DD43"/>
<stop offset="1" stop-color="#F7DD43" stop-opacity="0"/>
</linearGradient>
<linearGradient id="paint32_linear_122_130" x1="202.5" y1="358" x2="202.5" y2="669.381" gradientUnits="userSpaceOnUse">
<stop stop-color="#F7DD43"/>
<stop offset="1" stop-color="#F7DD43" stop-opacity="0"/>
</linearGradient>
<linearGradient id="paint33_linear_122_130" x1="202.5" y1="358" x2="202.5" y2="669.381" gradientUnits="userSpaceOnUse">
<stop stop-color="#F7DD43"/>
<stop offset="1" stop-color="#F7DD43" stop-opacity="0"/>
</linearGradient>
<linearGradient id="paint34_linear_122_130" x1="202.5" y1="358" x2="202.5" y2="669.381" gradientUnits="userSpaceOnUse">
<stop stop-color="#F7DD43"/>
<stop offset="1" stop-color="#F7DD43" stop-opacity="0"/>
</linearGradient>
<linearGradient id="paint35_linear_122_130" x1="202.5" y1="358" x2="202.5" y2="669.381" gradientUnits="userSpaceOnUse">
<stop stop-color="#F7DD43"/>
<stop offset="1" stop-color="#F7DD43" stop-opacity="0"/>
</linearGradient>
<linearGradient id="paint36_linear_122_130" x1="202.5" y1="358" x2="202.5" y2="669.381" gradientUnits="userSpaceOnUse">
<stop stop-color="#F7DD43"/>
<stop offset="1" stop-color="#F7DD43" stop-opacity="0"/>
</linearGradient>
<linearGradient id="paint37_linear_122_130" x1="202.5" y1="358" x2="202.5" y2="669.381" gradientUnits="userSpaceOnUse">
<stop stop-color="#F7DD43"/>
<stop offset="1" stop-color="#F7DD43" stop-opacity="0"/>
</linearGradient>
<linearGradient id="paint38_linear_122_130" x1="202.5" y1="358" x2="202.5" y2="669.381" gradientUnits="userSpaceOnUse">
<stop stop-color="#F7DD43"/>
<stop offset="1" stop-color="#F7DD43" stop-opacity="0"/>
</linearGradient>
<linearGradient id="paint39_linear_122_130" x1="202.5" y1="358" x2="202.5" y2="669.381" gradientUnits="userSpaceOnUse">
<stop stop-color="#F7DD43"/>
<stop offset="1" stop-color="#F7DD43" stop-opacity="0"/>
</linearGradient>
<linearGradient id="paint40_linear_122_130" x1="202.5" y1="358" x2="202.5" y2="669.381" gradientUnits="userSpaceOnUse">
<stop stop-color="#F7DD43"/>
<stop offset="1" stop-color="#F7DD43" stop-opacity="0"/>
</linearGradient>
<linearGradient id="paint41_linear_122_130" x1="202.5" y1="358" x2="202.5" y2="669.381" gradientUnits="userSpaceOnUse">
<stop stop-color="#F7DD43"/>
<stop offset="1" stop-color="#F7DD43" stop-opacity="0"/>
</linearGradient>
<linearGradient id="paint42_linear_122_130" x1="202.5" y1="358" x2="202.5" y2="669.381" gradientUnits="userSpaceOnUse">
<stop stop-color="#F7DD43"/>
<stop offset="1" stop-color="#F7DD43" stop-opacity="0"/>
</linearGradient>
<linearGradient id="paint43_linear_122_130" x1="202.5" y1="358" x2="202.5" y2="669.381" gradientUnits="userSpaceOnUse">
<stop stop-color="#F7DD43"/>
<stop offset="1" stop-color="#F7DD43" stop-opacity="0"/>
</linearGradient>
<linearGradient id="paint44_linear_122_130" x1="202.5" y1="358" x2="202.5" y2="669.381" gradientUnits="userSpaceOnUse">
<stop stop-color="#F7DD43"/>
<stop offset="1" stop-color="#F7DD43" stop-opacity="0"/>
</linearGradient>
<linearGradient id="paint45_linear_122_130" x1="202.5" y1="358" x2="202.5" y2="669.381" gradientUnits="userSpaceOnUse">
<stop stop-color="#F7DD43"/>
<stop offset="1" stop-color="#F7DD43" stop-opacity="0"/>
</linearGradient>
<linearGradient id="paint46_linear_122_130" x1="202.5" y1="358" x2="202.5" y2="669.381" gradientUnits="userSpaceOnUse">
<stop stop-color="#F7DD43"/>
<stop offset="1" stop-color="#F7DD43" stop-opacity="0"/>
</linearGradient>
<clipPath id="clip0_122_130">
<rect width="1024" height="753" fill="white"/>
</clipPath>
</defs>
</svg>
